<?xml version="1.0" standalone="no"?><!DOCTYPE svg PUBLIC "-//W3C//DTD SVG 1.1//EN" "http://www.w3.org/Graphics/SVG/1.1/DTD/svg11.dtd"><svg class="icon" width="200px" height="200.00px" viewBox="0 0 1024 1024" version="1.1" xmlns="http://www.w3.org/2000/svg"><path fill="#e6e6e6" d="M512 1011.3c-16.2 0-32.4-4.2-46.8-12.5L113.8 795.9C85 779.2 67 748.2 67 714.9V309.1c0-33.3 17.9-64.4 46.8-81L465.2 25.2c28.9-16.7 64.7-16.7 93.6 0l351.4 202.9c28.9 16.7 46.8 47.7 46.8 81V636c0 17.7-14.3 32-32 32s-32-14.3-32-32V309.1c0-10.5-5.7-20.3-14.8-25.6L526.8 80.6c-9.1-5.3-20.4-5.3-29.6 0L145.8 283.5c-9.1 5.3-14.8 15.1-14.8 25.6v405.7c0 10.5 5.7 20.3 14.8 25.6l351.4 202.9c9.1 5.3 20.4 5.3 29.6 0l320.7-185.2c15.3-8.8 34.9-3.6 43.7 11.7 8.8 15.3 3.6 34.9-11.7 43.7L558.8 998.8c-14.4 8.3-30.6 12.5-46.8 12.5z"  /><path fill="#e6e6e6" d="M573.6 544.5c-5.8 0-11.6-1.4-17-4.3L511 515.8l-45.9 23.7c-12.3 6.3-26.8 5.2-37.9-3-11.1-8.2-16.5-21.7-14.1-35.3l9.1-50.9-36.7-36.4c-9.8-9.7-13.2-23.9-8.8-37s15.6-22.4 29.2-24.3l51.2-7 23.2-46.2c6.2-12.2 18.5-19.8 32.2-19.8h0.3c13.8 0.1 26.1 7.9 32.1 20.3l22.5 46.5 51.1 7.8c13.6 2.1 24.7 11.6 28.9 24.7 4.2 13.2 0.6 27.3-9.4 36.8l-37.3 35.8 8.4 51c2.2 13.6-3.4 27.1-14.6 35.1-6.2 4.6-13.5 6.9-20.9 6.9z m13.2-60.8z m-75.5-35.6c5.8 0 11.7 1.4 17 4.3l8.5 4.6-1.6-9.5c-1.9-11.7 2-23.6 10.6-31.8l7-6.7-9.6-1.5c-11.7-1.8-21.8-9.2-27-19.9l-4.2-8.7-4.3 8.6c-5.3 10.6-15.5 17.9-27.3 19.5l-9.6 1.3 6.9 6.8c8.4 8.3 12.2 20.3 10.1 31.9l-1.7 9.5 8.6-4.4c5.3-2.6 10.9-4 16.6-4z"  /><path fill="#e6e6e6" d="M512 220c51.3 0 99.5 20 135.8 56.2S704 360.7 704 412c0 35.6-9.8 70.4-28.4 100.5l-20 32.5 19.1 33.1 54.3 94-12-0.6c-1.1-0.1-2.3-0.1-3.5-0.1-5.7 0-11.3 0.7-16.8 2.1-14.5 3.7-27.3 11.7-37 23.1l-4.8 5.6-3.4 6.6-5.7 11.2-49.5-85.7-20.9-36.3-41.6 4.7c-7.3 0.8-14.6 1.2-21.8 1.2s-14.5-0.4-21.8-1.2l-41.6-4.7-20.9 36.3-49.5 85.7-5.7-11.2-3.4-6.6-4.8-5.6c-9.7-11.4-22.5-19.4-37-23.1-5.4-1.4-11.1-2.1-16.8-2.1-1.1 0-2.3 0-3.5 0.1l-12 0.6 54.3-94 19.1-33.1-20-32.5C329.8 482.4 320 447.6 320 412c0-51.3 20-99.5 56.2-135.8S460.7 220 512 220m0-64c-141.4 0-256 114.6-256 256 0 49.2 13.9 95.1 37.9 134.1l-86 148.9c-10.4 18 0.2 40.8 20.6 44.5l81.7-4.1h0.3c0.3 0 0.6 0 0.9 0.1 1.6 0.4 3 1.3 4.1 2.6l37.6 73.3c6.1 7.1 14.5 10.6 22.8 10.6 10.2 0 20.3-5.1 26-15l81.2-140.6c9.5 1.1 19.1 1.6 28.9 1.6s19.4-0.6 28.9-1.6L622.1 807c5.7 9.9 15.8 15 26 15 8.4 0 16.8-3.5 22.8-10.6l37.6-73.3c1.1-1.3 2.5-2.2 4.1-2.6 0.3-0.1 0.6-0.1 0.9-0.1h0.3l81.7 4.1c20.4-3.7 31-26.5 20.6-44.5l-86-148.9c24-39 37.9-84.9 37.9-134.1 0-141.4-114.6-256-256-256z"  /></svg>